<svg width="24" height="24" viewBox="0 0 24 24" fill="none" xmlns="http://www.w3.org/2000/svg">
    <path fill-rule="evenodd" clip-rule="evenodd" d="M10.9393 2.09461C11.5251 1.50883 12.4749 1.50883 13.0607 2.09461L17.6705 6.70445L18.466 7.49994L16.875 9.09093L16.0795 8.29544L13.125 5.34093V15.3749V16.4999H10.875V15.3749V5.34093L7.9205 8.29544L7.125 9.09093L5.53401 7.49994L6.3295 6.70445L10.9393 2.09461ZM20.25 13.8749V20.2499H3.75V13.8749V12.7499H1.5V13.8749V20.9999C1.5 21.8284 2.17157 22.4999 3 22.4999H21C21.8284 22.4999 22.5 21.8284 22.5 20.9999V13.8749V12.7499H20.25V13.8749Z" fill="#666666"/>
</svg>
